<?xml version="1.0"?><svg id="Capa_1" xmlns="http://www.w3.org/2000/svg" xmlns:xlink="http://www.w3.org/1999/xlink" viewBox="0 0 507.14 117.11"><defs><linearGradient id="Degradado_sin_nombre" x1="-363.06" y1="98.11" x2="-362.06" y2="98.11" gradientTransform="translate(-6635.98 -33462.35) rotate(-82.27) scale(89.18 113.24)" gradientUnits="userSpaceOnUse"><stop offset="0" stop-color="#073782"></stop><stop offset=".11" stop-color="#093b86"></stop><stop offset=".24" stop-color="#114894"></stop><stop offset=".37" stop-color="#1f5eab"></stop><stop offset=".52" stop-color="#327ccc"></stop><stop offset=".57" stop-color="#3b8adb"></stop><stop offset="1" stop-color="#c8e1fb"></stop></linearGradient><linearGradient id="Degradado_sin_nombre_2" x1="-341.98" y1="110.57" x2="-340.98" y2="110.57" gradientTransform="translate(6672.77 -2006.33) rotate(8.06) scale(18.36 26.48) skewX(.04)" gradientUnits="userSpaceOnUse"><stop offset="0" stop-color="#3187d9"></stop><stop offset=".21" stop-color="#358ada"></stop><stop offset=".46" stop-color="#4395df"></stop><stop offset=".73" stop-color="#5aa8e6"></stop><stop offset="1" stop-color="#7bc2f1"></stop></linearGradient><linearGradient id="Degradado_sin_nombre_3" x1="-412.78" y1="102.16" x2="-411.78" y2="102.16" gradientTransform="translate(-2241.69 -3152.38) rotate(-111.8) scale(9.21)" gradientUnits="userSpaceOnUse"><stop offset="0" stop-color="#073782"></stop><stop offset=".26" stop-color="#1d5aa8"></stop><stop offset=".57" stop-color="#3b8adb"></stop><stop offset="1" stop-color="#c8e1fb"></stop></linearGradient><linearGradient id="Degradado_sin_nombre_4" x1="-362.51" y1="97.76" x2="-361.51" y2="97.76" gradientTransform="translate(-6775.82 -34437.85) rotate(-77.6) scale(83.91 143.93) skewX(-12.79)" gradientUnits="userSpaceOnUse"><stop offset="0" stop-color="#136ec9"></stop><stop offset=".37" stop-color="#459ae3"></stop><stop offset=".62" stop-color="#72b9ee"></stop><stop offset=".68" stop-color="#81c3f1"></stop><stop offset=".8" stop-color="#9bd6f6"></stop><stop offset=".91" stop-color="#abe2f9"></stop><stop offset="1" stop-color="#b1e6fb"></stop></linearGradient><linearGradient id="Degradado_sin_nombre_5" x1="-398.68" y1="111.64" x2="-397.68" y2="111.64" gradientTransform="translate(-1813.35 -4409.45) rotate(-97.33) scale(11.65)" gradientUnits="userSpaceOnUse"><stop offset="0" stop-color="#003391"></stop><stop offset="0" stop-color="#003391"></stop><stop offset=".05" stop-color="#003592"></stop><stop offset=".54" stop-color="#084ea6"></stop><stop offset="1" stop-color="#084ea6"></stop></linearGradient><linearGradient id="Degradado_sin_nombre_6" x1="-329.16" y1="110.11" x2="-328.16" y2="110.11" gradientTransform="translate(4535.76 -1592.89) rotate(14.98) scale(11.9 24.62) skewX(.25)" gradientUnits="userSpaceOnUse"><stop offset="0" stop-color="#1771cc"></stop><stop offset=".84" stop-color="#479ce2"></stop><stop offset="1" stop-color="#479ce2"></stop></linearGradient><linearGradient id="Degradado_sin_nombre_7" x1="-362.65" y1="98.16" x2="-361.65" y2="98.16" gradientTransform="translate(-5685.96 -36376.83) rotate(-81.48) scale(97.2 113.06) skewX(.05)" gradientUnits="userSpaceOnUse"><stop offset="0" stop-color="#063f8f"></stop><stop offset=".31" stop-color="#0c5ab4"></stop><stop offset=".51" stop-color="#3b8adb"></stop><stop offset=".77" stop-color="#90c5f6"></stop><stop offset="1" stop-color="#c8e1fb"></stop></linearGradient></defs><path class="cls-3" d="M483.47,54.78c0-.99.3-1.98.79-2.87.59-.79,1.39-1.58,2.57-2.08,1.09-.59,2.47-.79,4.06-.79s3.07.2,4.55.69c1.48.59,2.77,1.19,3.76,1.88.49.4.89.59,1.19.59.4,0,.69-.1.99-.4l.99-.99c.4-.49.59-.79.59-1.19,0-.49-.2-.79-.59-1.09-1.48-1.29-3.27-2.28-5.25-2.97-2.08-.69-4.06-.99-6.14-.99-2.57,0-4.85.49-6.63,1.39-1.88.99-3.27,2.28-4.16,3.76-.89,1.58-1.39,3.27-1.39,5.05,0,5.35,3.86,9.01,11.48,11.09,2.28.59,4.16,1.29,5.54,1.78,1.29.59,2.28,1.29,3.07,2.18.69.79,1.09,1.88,1.09,3.17s-.4,2.47-1.09,3.56-1.68,1.88-2.97,2.47c-1.39.59-2.77.89-4.45.89-1.98,0-3.96-.3-5.94-1.09-1.98-.69-3.66-1.68-5.15-2.77-.4-.3-.79-.49-1.09-.49-.4,0-.69.2-1.09.59l-.69.99c-.3.4-.49.69-.49.99,0,.49.2.79.49,1.09,1.88,1.58,3.96,2.87,6.43,3.76,2.47.99,4.95,1.39,7.62,1.39,2.47,0,4.75-.49,6.73-1.48,1.98-1.09,3.56-2.47,4.65-4.16,1.09-1.78,1.58-3.66,1.58-5.84s-.59-3.96-1.68-5.44c-1.19-1.39-2.57-2.57-4.36-3.46-1.78-.79-3.96-1.58-6.43-2.28-3.17-.89-5.34-1.88-6.63-2.97-1.29-.99-1.98-2.38-1.98-3.96h.03Z"></path><path class="cls-3" d="M326.88,45.08c-.79,0-1.29.3-1.29,1.19v36.03c0,.89.49,1.29,1.29,1.29h8.31c.89,0,1.29-.4,1.29-1.29v-17.92c0-2.08.4-3.86,1.19-5.34.69-1.58,1.68-2.67,2.97-3.46,1.19-.69,2.47-1.09,3.86-1.09s2.87.4,4.35,1.29c.3.1.49.2.79.2.4,0,.69-.3.99-.69l3.66-6.93c.1-.2.2-.49.2-.69,0-.4-.3-.79-.69-1.09-2.57-1.48-5.15-2.18-7.72-2.18-2.18,0-4.06.4-5.74,1.39s-3.07,2.28-4.06,3.96l-1.58-3.76c-.2-.69-.69-.89-1.48-.89h-6.33v-.02Z"></path><path class="cls-3" d="M318.96,54.09c-1.58-3.07-3.86-5.44-6.73-7.13-2.97-1.78-6.43-2.57-10.39-2.57s-7.03.89-10,2.67c-2.87,1.88-5.15,4.26-6.83,7.32-1.58,3.07-2.47,6.43-2.47,10.1s.89,7.03,2.67,10.1c1.68,3.07,4.06,5.54,7.13,7.23,3.07,1.88,6.53,2.77,10.39,2.77,2.47,0,4.85-.4,7.03-1.19,2.18-.69,4.16-1.78,5.94-3.17.3-.3.49-.59.49-.99,0-.2-.1-.49-.3-.79l-3.96-5.54c-.3-.4-.59-.59-.89-.59s-.59.1-.89.3c-.99.79-2.08,1.39-3.27,1.78-1.09.4-2.38.59-3.76.59-2.18,0-4.06-.59-5.74-1.88-1.78-1.19-2.97-2.77-3.66-4.95h26.03c.79,0,1.29-.4,1.39-1.19,0-.79.1-1.68.1-2.47,0-3.86-.79-7.32-2.28-10.39h0ZM296.79,55.37c1.48-1.19,3.27-1.78,5.35-1.78s3.86.59,5.34,1.68c1.39,1.19,2.47,2.77,2.97,4.95h-16.83c.69-2.08,1.68-3.76,3.17-4.85h0Z"></path><path class="cls-3" d="M364.29,39.93c0-.99-.49-1.48-1.48-1.48h-1.88c-.99,0-1.48.49-1.48,1.48v42.17c0,.49.2.79.4,1.09.3.3.69.4,1.09.4h25.83c1.09,0,1.58-.49,1.58-1.48v-1.68c0-1.09-.49-1.58-1.58-1.58h-22.47v-38.92Z"></path><path class="cls-3" d="M408.74,44.59c-3.46,0-6.63.89-9.4,2.57-2.87,1.88-5.15,4.26-6.83,7.23-1.58,3.07-2.47,6.43-2.47,10.1s.89,7.03,2.47,10c1.68,3.07,3.96,5.44,6.73,7.23,2.87,1.78,6.04,2.67,9.5,2.67,2.28,0,4.45-.4,6.43-1.29,1.98-.79,3.76-1.98,5.25-3.46,1.58-1.39,2.37-2.97,2.57-4.75v7.23c0,.49.2.89.4,1.09.3.3.69.4,1.09.4h1.68c.4,0,.79-.1,1.09-.4s.4-.59.4-1.09v-35.43c0-.99-.49-1.48-1.48-1.48h-1.68c-.89,0-1.39.49-1.48,1.48v7.23c-.69-2.67-2.38-4.85-5.05-6.63-2.77-1.78-5.84-2.67-9.21-2.67v-.03ZM401.71,51.12c2.08-1.29,4.45-1.98,7.03-1.98s5.05.69,7.23,1.98c2.18,1.39,3.96,3.27,5.25,5.54,1.19,2.38,1.88,5.05,1.88,7.82s-.69,5.44-1.88,7.82c-1.29,2.28-3.07,4.16-5.25,5.44-2.18,1.39-4.55,1.98-7.23,1.98s-4.95-.59-7.03-1.98c-2.18-1.29-3.76-3.17-5.05-5.44-1.19-2.38-1.78-4.95-1.78-7.82s.59-5.44,1.78-7.82c1.29-2.28,2.87-4.16,5.05-5.54Z"></path><path class="cls-3" d="M441.4,34.98c0-.99-.49-1.48-1.48-1.48h-1.78c-.99,0-1.48.49-1.48,1.48v47.11c0,.99.49,1.48,1.48,1.48h1.58c.49,0,.79-.1,1.09-.4.3-.2.49-.59.49-1.09v-7.23c.2,1.78.99,3.37,2.47,4.75,1.58,1.48,3.37,2.67,5.35,3.46,1.98.89,4.06,1.29,6.43,1.29,3.36,0,6.53-.89,9.4-2.67s5.15-4.16,6.73-7.23c1.68-3.07,2.47-6.43,2.47-10s-.79-7.03-2.47-10c-1.58-3.07-3.86-5.44-6.73-7.32-2.87-1.68-6.04-2.57-9.4-2.57s-6.43.79-9.11,2.57c-2.67,1.68-4.36,3.86-5.05,6.53v-18.71.03ZM455.45,49.14c2.57,0,4.95.69,7.13,1.98,2.08,1.39,3.76,3.27,5.05,5.54,1.19,2.38,1.78,4.95,1.78,7.82s-.59,5.44-1.78,7.82c-1.29,2.28-2.87,4.16-5.05,5.44-2.08,1.39-4.45,1.98-7.03,1.98s-5.15-.59-7.32-1.98c-2.18-1.29-3.86-3.17-5.15-5.44-1.19-2.38-1.88-4.95-1.88-7.82s.69-5.44,1.88-7.82c1.29-2.28,2.97-4.16,5.15-5.54,2.18-1.29,4.65-1.98,7.23-1.98h-.01Z"></path><path class="cls-3" d="M189.79,54.09c-1.58-3.07-3.86-5.44-6.73-7.13-2.97-1.78-6.43-2.57-10.39-2.57s-7.03.89-10,2.67c-2.97,1.88-5.15,4.26-6.83,7.32-1.58,3.07-2.38,6.43-2.38,10.1s.79,7.03,2.57,10.1c1.68,3.07,4.06,5.54,7.13,7.23,3.07,1.88,6.53,2.77,10.39,2.77,2.47,0,4.85-.4,7.03-1.19,2.18-.69,4.16-1.78,5.94-3.17.3-.3.49-.59.49-.99,0-.2-.1-.49-.3-.79l-3.96-5.54c-.3-.4-.59-.59-.89-.59s-.59.1-.89.3c-.99.79-2.08,1.39-3.27,1.78-1.09.4-2.38.59-3.76.59-2.18,0-4.06-.59-5.74-1.88-1.78-1.19-2.97-2.77-3.66-4.95h26.03c.79,0,1.29-.4,1.39-1.19,0-.79.1-1.68.1-2.47,0-3.86-.79-7.32-2.28-10.39h0ZM167.62,55.37c1.48-1.19,3.27-1.78,5.35-1.78s3.86.59,5.34,1.68c1.39,1.19,2.47,2.77,2.97,4.95h-16.83c.69-2.08,1.68-3.76,3.17-4.85Z"></path><path class="cls-3" d="M216.42,44.39c-4.06,0-7.42,1.19-10.19,3.76l-.89-2.18c-.3-.69-.79-.89-1.48-.89h-6.14c-.79,0-1.29.3-1.29,1.19v47.41c0,.79.49,1.29,1.29,1.29h8.31c.89,0,1.29-.49,1.29-1.29v-12.08c2.47,1.88,5.54,2.87,9.11,2.87s7.03-.89,10-2.67c3.07-1.88,5.54-4.26,7.32-7.42,1.78-3.07,2.67-6.43,2.67-10.1s-.89-6.93-2.67-10-4.26-5.44-7.32-7.23c-3.07-1.78-6.43-2.67-10-2.67h0ZM220.97,55.97c1.39.89,2.47,1.98,3.36,3.56.79,1.48,1.19,3.07,1.19,4.95s-.4,3.46-1.19,4.95c-.79,1.39-1.88,2.57-3.36,3.37-1.39.89-2.97,1.29-4.75,1.29s-3.46-.4-4.85-1.29c-1.48-.79-2.57-1.98-3.46-3.37-.79-1.48-1.29-3.17-1.29-4.95,0-1.88.4-3.46,1.29-4.95.79-1.48,1.98-2.67,3.36-3.56,1.48-.79,3.07-1.29,4.85-1.29s3.37.49,4.85,1.29Z"></path><path class="cls-3" d="M260.76,44.39c-4.06,0-7.42,1.19-10.19,3.76l-.89-2.18c-.3-.69-.79-.89-1.48-.89h-6.14c-.79,0-1.29.3-1.29,1.19v47.41c0,.79.49,1.29,1.29,1.29h8.31c.89,0,1.29-.49,1.29-1.29v-12.08c2.47,1.88,5.54,2.87,9.11,2.87s6.93-.89,10-2.67c3.07-1.88,5.54-4.26,7.32-7.42,1.78-3.07,2.67-6.43,2.67-10.1s-.89-6.93-2.67-10-4.26-5.44-7.32-7.23c-3.07-1.78-6.43-2.67-10-2.67h0ZM260.56,74.08c-1.78,0-3.46-.4-4.85-1.29-1.48-.79-2.57-1.98-3.46-3.37-.79-1.48-1.29-3.17-1.29-4.95,0-1.88.4-3.46,1.29-4.95.79-1.48,1.98-2.67,3.37-3.56,1.48-.79,3.07-1.29,4.85-1.29s3.37.49,4.75,1.29c1.48.89,2.57,1.98,3.46,3.56.79,1.48,1.19,3.07,1.19,4.95s-.4,3.46-1.19,4.95c-.79,1.39-1.98,2.57-3.36,3.37-1.39.89-3.07,1.29-4.75,1.29h0Z"></path><path class="cls-3" d="M150,46.07c-1.29-2.28-3.17-4.06-5.64-5.34-2.47-1.29-5.25-1.98-8.51-1.98h-17.22c-.89,0-1.29.4-1.29,1.29v42.26c0,.89.4,1.29,1.29,1.29h8.91c.89,0,1.29-.4,1.29-1.29v-12.77h7.13c3.37,0,6.24-.69,8.61-1.98,2.47-1.29,4.26-3.17,5.54-5.54,1.29-2.38,1.98-5.05,1.98-8.22,0-2.87-.79-5.44-2.08-7.72h0ZM128.82,49.14h6.24c1.09,0,1.98.2,2.87.59.79.4,1.39.99,1.88,1.68.49.79.79,1.58.79,2.47,0,.99-.3,1.88-.79,2.67-.49.79-1.09,1.39-1.98,1.88-.89.4-1.68.69-2.77.69h-6.24v-10,.02Z"></path><path class="cls-8" d="M18.67,24.52C-4.68,35.25,1.92,68.18,10.36,88.26c5.38,14.36,15.85,24.79,32.17,27.42-21.37-19.12-32.36-76.3,1.68-87.5-7.65-5.13-16.54-6.71-25.54-3.66Z"></path><path class="cls-5" d="M53.71,10.66c-2.38,3.65-3.79,8.42-4.65,12.47-.25,1.65-.49,2.96-.49,4.65,1.96-.25,4.22.05,6.04.3-.94-11.06,7.74-29.5,19.8-21.18,3.1-10.63-13.68-6.77-20.69,3.76h0Z"></path><path class="cls-7" d="M48.56,27.79c0-1.7.24-3,.49-4.65-4.75-2.33-9.81-2.1-14.25.69,3.32.95,6.42,2.4,9.4,4.36,1.55-.22,2.89-.42,4.35-.4h0Z"></path><path class="cls-4" d="M50.45,29.07c-40.96,2.85-26.26,76.7-2.97,87.2,2.91.02,5.49.34,8.51.2-14.99-15.27,4.85-39.04,9.5-55.23,6.26-16.22,2.84-32.62-15.04-32.17Z"></path><path class="cls-2" d="M59.85,24.32c-.1.1-.2.2-.3.2,0,1.67,0,3.14.3,4.85.99.4,1.98.79,2.87,1.29,4.6-3.38,10.18-5.89,14.85-5.64-3.44-2.42-6.49-3.26-9.6-2.97-3.49.39-7.21,1.49-8.12,2.28h0Z"></path><path class="cls-1" d="M59.55,26.01c-.29-6.55,3.05-17.85,11.48-17.32,1.39-.14,2.62-.57,3.37-1.78-12.06-8.31-20.73,10.11-19.8,21.18,1.82.25,3.5.68,5.25,1.29-.21-1.19-.26-2.26-.3-3.37Z"></path><path class="cls-6" d="M62.72,30.66c14.33,11.68,6.83,26.46-1.98,46.82-7.14,15.57-15.5,37.47,1.38,38.41,22.96-1.06,28.62-30.49,34.05-51.37,6.28-26.75-10.26-50.73-33.46-33.85h.01Z"></path></svg>